<svg xmlns="http://www.w3.org/2000/svg" viewBox="0 0 960 560" role="img" aria-labelledby="title desc"><title id="title">ITSBAD Labs keyboard logo</title><desc id="desc">A minimal keyboard mark with ITSBAD spelled across pink keys and LABS on the space bar.</desc><rect width="960" height="560" fill="none"/><g transform="translate(80 95)"><rect x="0" y="0" width="800" height="370" rx="70" fill="#fff" stroke="#3A3B78" stroke-width="24"/><g fill="#3A3B78"><rect x="52" y="48" width="108" height="82" rx="16"/><rect x="180" y="48" width="108" height="82" rx="16"/><rect x="308" y="48" width="108" height="82" rx="16"/><rect x="436" y="48" width="108" height="82" rx="16"/><rect x="564" y="48" width="108" height="82" rx="16"/><rect x="692" y="48" width="56" height="82" rx="16"/></g><g fill="#FF66C4"><rect x="52" y="156" width="108" height="96" rx="16"/><rect x="180" y="156" width="108" height="96" rx="16"/><rect x="308" y="156" width="108" height="96" rx="16"/><rect x="436" y="156" width="108" height="96" rx="16"/><rect x="564" y="156" width="108" height="96" rx="16"/><rect x="692" y="156" width="56" height="96" rx="16"/></g><g fill="#fff" font-family="Inter,Arial,sans-serif" font-size="54" font-weight="800" text-anchor="middle"><text x="106" y="220">I</text><text x="234" y="220">T</text><text x="362" y="220">S</text><text x="490" y="220">B</text><text x="618" y="220">A</text><text x="720" y="220">D</text></g><rect x="52" y="278" width="696" height="66" rx="16" fill="#fff" stroke="#3A3B78" stroke-width="10"/><line x1="110" y1="311" x2="230" y2="311" stroke="#FF66C4" stroke-width="8" stroke-linecap="round"/><line x1="570" y1="311" x2="690" y2="311" stroke="#FF66C4" stroke-width="8" stroke-linecap="round"/><text x="400" y="326" fill="#3A3B78" font-family="Inter,Arial,sans-serif" font-size="46" font-weight="800" letter-spacing="18" text-anchor="middle">LABS</text></g></svg>